<svg xmlns="http://www.w3.org/2000/svg" xmlns:xlink="http://www.w3.org/1999/xlink" width="1em" height="1em" viewBox="0 0 18 18">
    <defs>
        <path id="a" d="M9 1c4.4 0 8 3.6 8 8s-3.6 8-8 8-8-3.6-8-8 3.6-8 8-8zm0 14.4c3.52 0 6.4-2.88 6.4-6.4 0-3.52-2.88-6.4-6.4-6.4-3.52 0-6.4 2.88-6.4 6.4 0 3.52 2.88 6.4 6.4 6.4zM8 5h2v5H8V5zm1 8a1 1 0 1 1 0-2 1 1 0 0 1 0 2z"/>
    </defs>
    <g fill="none" fill-rule="evenodd">
        <mask id="b" fill="#fff">
            <use xlink:href="#a"/>
        </mask>
        <use fill="#444" fill-rule="nonzero" xlink:href="#a"/>
        <g fill="#d94848" mask="url(#b)">
            <path d="M0 0h18v18H0z"/>
        </g>
    </g>
</svg>
