<svg xmlns="http://www.w3.org/2000/svg" viewBox="0 0 48 32">
  <g fill="none" fill-rule="evenodd">
    <rect width="47" height="31" x=".5" y=".5" stroke="#C7C7C7" rx="3"/>
    <path fill="#007AC6" fill-rule="nonzero" d="M10.533,16.429 L12.863,16.429 L11.698,13.572 L10.533,16.429 Z M43,11 L37.031,11 L35.575,12.571 L34.264,11 L21.598,11 L20.433,13.571 L19.268,11 L14.172,11 L14.172,12.143 L13.59,11 L9.222,11 L5,21 L10.096,21 L10.678,19.429 L12.134,19.429 L12.716,21 L18.394,21 L18.394,19.857 L18.831,21 L21.743,21 L22.18,19.714 L22.18,21 L33.828,21 L35.284,19.429 L36.594,21 L42.563,21 L38.778,16 L43,11 Z M25.383,19.571 L23.781,19.571 L23.781,14 L21.306,19.571 L19.85,19.571 L17.375,14 L17.375,19.571 L14.026,19.571 L13.444,18 L9.95,18 L9.368,19.571 L7.475,19.571 L10.532,12.428 L13.007,12.428 L15.773,19.142 L15.773,12.428 L18.539,12.428 L20.723,17.285 L22.761,12.428 L25.527,12.428 L25.527,19.571 L25.383,19.571 L25.383,19.571 Z M39.797,19.571 L37.613,19.571 L35.72,17.142 L33.536,19.571 L26.984,19.571 L26.984,12.428 L33.681,12.428 L35.719,14.714 L37.903,12.428 L39.941,12.428 L36.739,16 L39.797,19.571 Z M28.586,13.857 L28.586,15.143 L32.226,15.143 L32.226,16.572 L28.586,16.572 L28.586,18 L32.663,18 L34.556,15.857 L32.809,13.857 L28.586,13.857 Z"/>
  </g>
</svg>
