<svg xmlns="http://www.w3.org/2000/svg" viewBox="0 0 48 32">
  <g fill="none" fill-rule="evenodd">
    <rect width="47" height="31" x=".5" y=".5" stroke="#C7C7C7" rx="3"/>
    <path fill="#FA7000" fill-rule="nonzero" d="M25.0039239,13 C23.3459776,13 22,14.3246362 22,15.9613648 C22,17.7014551 23.2871156,19 25.0039239,19 C26.6795287,19 28,17.6823884 28,15.9944807 C28.0009805,14.3166081 26.689339,13 25.0039239,13 Z"/>
    <path fill="#444" fill-rule="nonzero" d="M7.74032565,13 L6,13 L6,19 L7.72975259,19 C8.6506661,19 9.31465426,18.7837367 9.89722986,18.3062859 C10.588708,17.7410761 11,16.8864705 11,16.0015671 C10.9989427,14.2296709 9.66039332,13 7.74032565,13 Z M9.12539649,17.5060073 C8.74899556,17.8382379 8.26897864,17.9834581 7.5024318,17.9834581 L7.18524001,17.9834581 L7.18524001,14.0154971 L7.50348911,14.0154971 C8.27003595,14.0154971 8.73102136,14.1513146 9.1264538,14.5002612 C9.5335166,14.8607 9.77881159,15.4175518 9.77881159,15.9932091 C9.77775428,16.5709559 9.5335166,17.147658 9.12539649,17.5060073 Z"/>
    <rect width="1" height="6" x="11" y="13" fill="#444" fill-rule="nonzero"/>
    <path fill="#444" fill-rule="nonzero" d="M15.3335001,15.3054533 C14.6544072,15.0575443 14.4559187,14.8919371 14.4559187,14.5807963 C14.4559187,14.2184677 14.8105784,13.9434594 15.2982356,13.9434594 C15.635767,13.9434594 15.91486,14.0779525 16.2110815,14.4071596 L16.7984868,13.6403479 C16.3138523,13.2147876 15.7324923,13 15.0997471,13 C14.07607,13 13.295214,13.7096019 13.295214,14.6480428 C13.295214,15.4449649 13.6579342,15.849448 14.7168757,16.2328538 C15.1591929,16.3864169 15.3838779,16.4907996 15.4987393,16.5620609 C15.7244319,16.7075945 15.8362706,16.9153563 15.8362706,17.1562395 C15.8362706,17.6249582 15.4634748,17.9702242 14.9586892,17.9702242 C14.4216618,17.9702242 13.9874051,17.7022416 13.7274556,17.1993978 L13,17.9019739 C13.519899,18.6607561 14.1435763,19 15.0030217,19 C16.1748095,19 17,18.2191368 17,17.1060555 C17.0010056,16.1886919 16.6181342,15.7731683 15.3335001,15.3054533 Z"/>
    <path fill="#444" fill-rule="nonzero" d="M17,16.0024996 C17,17.6912181 18.1962111,19 19.7352278,19 C20.1691475,19 20.541723,18.9050158 21,18.6650558 L21,17.3452758 C20.5949481,17.7962006 20.2395129,17.974171 19.7794317,17.974171 C18.7618403,17.974171 18.0410465,17.1583069 18.0410465,15.9945009 C18.0410465,14.8946842 18.7852954,14.0228295 19.7343257,14.0228295 C20.2133514,14.0228295 20.5796121,14.2107982 20.9990979,14.6687219 L20.9990979,13.3509415 C20.556157,13.1029828 20.1926026,13 19.7550744,13 C18.2259811,13 17,14.3337777 17,16.0024996 Z"/>
    <polygon fill="#444" fill-rule="nonzero" points="30.993 16.929 29.329 13 28 13 30.648 19 31.301 19 34 13 32.682 13"/>
    <polygon fill="#444" fill-rule="nonzero" points="34 19 37 19 37 17.983 35.059 17.983 35.059 16.364 36.926 16.364 36.926 15.348 35.059 15.348 35.059 14.015 37 14.015 37 13 34 13"/>
    <path fill="#444" fill-rule="nonzero" d="M41.523242,14.7708515 C41.523242,13.6467003 40.8195471,13 39.5866508,13 L38,13 L38,19 L39.0707986,19 L39.0707986,16.5876719 L39.2100119,16.5876719 L40.6851013,19 L42,19 L40.2769964,16.4706599 C41.081764,16.2920077 41.523242,15.6891868 41.523242,14.7708515 Z M39.3816448,15.7602298 L39.0717521,15.7602298 L39.0717521,13.9454989 L39.3988081,13.9454989 C40.0662694,13.9454989 40.4238379,14.2526554 40.4238379,14.8366707 C40.4238379,15.4363573 40.0662694,15.7602298 39.3816448,15.7602298 Z"/>
  </g>
</svg>

