<svg xmlns="http://www.w3.org/2000/svg" viewBox="0 0 48 32">
  <g fill="none" fill-rule="evenodd">
    <rect width="47" height="31" x=".5" y=".5" stroke="#C7C7C7" rx="3"/>
    <g fill-rule="nonzero" transform="translate(6 11)">
      <path fill="#009EE3" d="M24.2908306,1.0658141e-14 L21.4908306,1.0658141e-14 C21.2998306,1.0658141e-14 21.1368306,0.139 21.1068306,0.328 L19.9748306,7.508 C19.9528306,7.65 20.0618306,7.778 20.2058306,7.778 L21.6428306,7.778 C21.7768306,7.778 21.8908306,7.68 21.9118306,7.548 L22.2328306,5.512 C22.2628306,5.323 22.4258306,5.184 22.6168306,5.184 L23.5028306,5.184 C25.3468306,5.184 26.4118306,4.291 26.6898306,2.522 C26.8148306,1.748 26.6948306,1.14 26.3328306,0.715 C25.9338306,0.248 25.2278306,1.0658141e-14 24.2908306,1.0658141e-14 Z M24.6138306,2.623 C24.4608306,3.628 23.6928306,3.628 22.9508306,3.628 L22.5288306,3.628 L22.8248306,1.751 C22.8428306,1.638 22.9408306,1.554 23.0558306,1.554 C23.6708306,1.554 24.2108306,1.529 24.4788306,1.842 C24.6258306,2.015 24.6698306,2.27 24.6138306,2.623 Z"/>
      <path fill="#113984" d="M4.31883063 1.0658141e-14L1.51883063 1.0658141e-14C1.32783063 1.0658141e-14 1.16483063.139 1.13483063.328L.00283062705 7.508C-.019169373 7.65.089830627 7.778.233830627 7.778L1.57083063 7.778C1.76183063 7.778 1.92483063 7.639 1.95483063 7.45L2.26083063 5.513C2.29083063 5.324 2.45383063 5.185 2.64483063 5.185L3.53083063 5.185C5.37483063 5.185 6.43983063 4.292 6.71783063 2.523 6.84283063 1.749 6.72283063 1.141 6.36083063.716 5.96083063.248 5.25583063 1.0658141e-14 4.31883063 1.0658141e-14zM4.64183063 2.623C4.48883063 3.628 3.72083063 3.628 2.97883063 3.628L2.55583063 3.628 2.85183063 1.751C2.86983063 1.638 2.96783063 1.554 3.08283063 1.554L3.27683063 1.554C3.78183063 1.554 4.25983063 1.554 4.50583063 1.842 4.65283063 2.015 4.69783063 2.27 4.64183063 2.623zM12.6888306 2.591L11.3478306 2.591C11.2328306 2.591 11.1348306 2.675 11.1168306 2.788L11.0578306 3.163C10.9278306 2.974 10.6688306 2.465 9.37983063 2.465 7.89883063 2.465 6.63283063 3.588 6.38683063 5.162 6.25883063 5.947 6.44083063 6.698 6.88583063 7.222 7.29483063 7.703 7.87883063 7.904 8.57483063 7.904 9.76883063 7.904 10.4308306 7.137 10.4308306 7.137L10.3708306 7.51C10.3488306 7.652 10.4578306 7.78 10.6018306 7.78L11.8098306 7.78C12.0008306 7.78 12.1638306 7.641 12.1938306 7.452L12.9188306 2.862C12.9408306 2.719 12.8318306 2.591 12.6888306 2.591zM10.8198306 5.201C10.6908306 5.967 10.0818306 6.481 9.30683063 6.481 8.91783063 6.481 8.60683063 6.356 8.40683063 6.119 8.20883063 5.884 8.13383063 5.55 8.19683063 5.177 8.31783063 4.418 8.93583063 3.887 9.69983063 3.887 10.0808306 3.887 10.3898306 4.013 10.5938306 4.252 10.7978306 4.493 10.8788306 4.83 10.8198306 5.201z"/>
      <path fill="#009EE3" d="M32.6608306,2.591 L31.3198306,2.591 C31.2048306,2.591 31.1068306,2.675 31.0888306,2.788 L31.0298306,3.163 C30.8998306,2.974 30.6408306,2.465 29.3518306,2.465 C27.8708306,2.465 26.6048306,3.588 26.3588306,5.162 C26.2308306,5.947 26.4128306,6.698 26.8578306,7.222 C27.2668306,7.703 27.8508306,7.904 28.5468306,7.904 C29.7408306,7.904 30.4028306,7.137 30.4028306,7.137 L30.3428306,7.51 C30.3208306,7.652 30.4298306,7.78 30.5738306,7.78 L31.7818306,7.78 C31.9728306,7.78 32.1358306,7.641 32.1658306,7.452 L32.8908306,2.862 C32.9138306,2.719 32.8038306,2.591 32.6608306,2.591 Z M30.7918306,5.201 C30.6618306,5.967 30.0538306,6.481 29.2788306,6.481 C28.8898306,6.481 28.5788306,6.356 28.3788306,6.119 C28.1808306,5.884 28.1058306,5.55 28.1688306,5.177 C28.2898306,4.418 28.9078306,3.887 29.6718306,3.887 C30.0528306,3.887 30.3618306,4.013 30.5658306,4.252 C30.7698306,4.493 30.8508306,4.83 30.7918306,5.201 Z"/>
      <path fill="#113984" d="M19.8298306,2.591 L18.4818306,2.591 C18.3528306,2.591 18.2328306,2.655 18.1598306,2.762 L16.3008306,5.5 L15.5128306,2.869 C15.4638306,2.704 15.3118306,2.591 15.1398306,2.591 L13.8148306,2.591 C13.6548306,2.591 13.5418306,2.748 13.5938306,2.9 L15.0778306,7.256 L13.6818306,9.226 C13.5718306,9.381 13.6828306,9.594 13.8718306,9.594 L15.2178306,9.594 C15.3458306,9.594 15.4648306,9.531 15.5378306,9.427 L20.0198306,2.958 C20.1288306,2.802 20.0178306,2.591 19.8298306,2.591 Z"/>
      <path fill="#009EE3" d="M34.2408306,0.198 L33.0918306,7.51 C33.0698306,7.652 33.1788306,7.78 33.3228306,7.78 L34.4788306,7.78 C34.6698306,7.78 34.8328306,7.641 34.8628306,7.452 L35.9958306,0.272 C36.0178306,0.13 35.9088306,0.00196502773 35.7648306,0.00196502773 L34.4708306,0.00196502773 C34.3568306,8.7486008e-14 34.2588306,0.084 34.2408306,0.198 Z"/>
    </g>
  </g>
</svg>
