<svg xmlns="http://www.w3.org/2000/svg" viewBox="0 0 48 32">
  <g fill="none" fill-rule="evenodd">
    <g fill="#1E91D6" transform="translate(10 12)">
      <path d="M16.9017129,0 C17.7040438,0 18.3481118,0.175612024 18.7576287,0.336540372 L18.7576287,0.336540372 L18.477115,2.07477968 L18.2911325,1.98300671 C17.9089799,1.82006527 17.4185547,1.66411043 16.7410809,1.67500477 C15.9298655,1.67500477 15.5550575,2.03167599 15.5545837,2.36501911 C15.5494899,2.7413475 15.9937156,2.98765432 16.7175073,3.35936446 C17.9127706,3.93131731 18.4646767,4.62417365 18.4572137,5.53811404 C18.4406292,7.20198764 17.02657,8.27697479 14.8503378,8.27697479 C13.9211361,8.26679095 13.025814,8.07294275 12.5428518,7.84960878 L12.5428518,7.84960878 L12.832487,6.05476627 L13.098904,6.18241951 C13.78005,6.48177703 14.2206035,6.60291735 15.0498248,6.60291735 C15.6453242,6.60291735 16.283943,6.35684737 16.2895107,5.81982746 C16.2927091,5.46872183 16.0215537,5.21744151 15.2144845,4.8247716 C14.4292119,4.44169345 13.3875914,3.79880898 13.4006221,2.64637728 C13.4125865,1.08824983 14.8540101,0 16.9017129,0 Z M24.0706866,0.147902507 L25.7468983,8.16092639 L23.8245263,8.16092639 C23.8245263,8.16092639 23.6343977,7.23940732 23.5723246,6.95958857 C23.3238509,6.95958857 21.8464195,6.95677771 21.2001882,6.95578564 L20.9195271,6.95544399 C20.8389742,7.17238345 20.4840675,8.16092639 20.4840675,8.16092639 L20.4840675,8.16092639 L18.3086646,8.16092639 L21.3844834,0.812575661 C21.6019763,0.28976576 21.9735859,0.147902507 22.4700525,0.147902507 L22.4700525,0.147902507 L24.0706866,0.147902507 Z M12.5404826,0.139731752 L11.2448836,8.15808438 L9.17360717,8.15808438 L10.4693247,0.139731752 L12.5404826,0.139731752 Z M9.6308635,0.146481506 L6.36918067,8.14979521 L4.17719335,8.1510978 L2.32258065,1.13845853 C3.63796258,1.83380162 4.81391686,3.22152738 5.1916864,4.50184916 L5.1916864,4.50184916 L5.40882393,5.61307183 L7.43603313,0.146481506 L9.6308635,0.146481506 Z M22.615877,2.30900799 C22.5112767,2.60954967 22.3284926,3.09517672 22.3405756,3.07409854 C22.3405756,3.07409854 21.6871492,4.85437579 21.5155003,5.31525374 L21.5155003,5.31525374 L23.23495,5.31525374 C23.1660186,4.97770371 22.8732979,3.56721536 22.7825783,3.13021336 L22.7556601,3.00056174 Z"/>
      <path d="M3.45390083,4.55233613 L0.0283086708,4.55233613 L0,4.37890086 C2.66563192,3.68553059 4.42927426,2.01187396 5.16129032,0 L4.41688163,3.84610965 C4.28845989,4.37655212 3.91522282,4.53379352 3.45390083,4.55233613" transform="matrix(1 0 0 -1 0 4.552)"/>
    </g>
    <rect width="47" height="31" x=".5" y=".5" stroke="#C7C7C7" rx="3"/>
  </g>
</svg>
