<svg width="21" height="20" viewBox="0 0 21 20" xmlns="http://www.w3.org/2000/svg">
  <g fill="none" fill-rule="evenodd">
    <path fill="#42991D" d="M0 14h3v3H0z"/>
    <path fill="#62B946" d="M0 8h3v6H0zM4 13h6v1H4v-1zm.004-3H9.01l4.982.846c.634.213.95.57.95 1.071s-.316.861-.95 1.08H4.004V10z"/>
    <path d="M4.018 14.024V16l5.984 3.037a4.443 4.443 0 0 0 3.029-.08c1.001-.381 3.663-1.367 7.985-2.957-.19-1.254-.866-1.914-2.028-1.977l-5.957 1.012c-1.71-.175-2.72-.512-3.03-1.012H4.019z" fill="#42991D"/>
    <circle fill="#8CD86C" cx="10" cy="3" r="3"/>
    <circle fill="#62B946" cx="17" cy="7" r="3"/>
  </g>
</svg>
