<svg xmlns="http://www.w3.org/2000/svg" width="44" height="44">
  <g stroke-width="2.09" fill="none" fill-rule="evenodd">
    <path d="M9.045 12.5a3.455 3.455 0 1 1 0-6.91 3.455 3.455 0 0 1 0 6.91z" stroke="#62BB46" stroke-linecap="square"/>
    <path d="M11.636 38.41H6.455l-.864-9.5L3 28.044v-7.772a3.455 3.455 0 0 1 3.455-3.455h5.181c1.256 0 2.356.671 2.96 1.673" stroke="#62BB46"/>
    <path d="M34.955 12.5a3.455 3.455 0 1 0 0-6.91 3.455 3.455 0 0 0 0 6.91z" stroke="#62BB46" stroke-linecap="square"/>
    <path d="M32.364 38.41h5.181l.864-9.5L41 28.044v-7.772a3.455 3.455 0 0 0-3.455-3.455h-5.181a3.453 3.453 0 0 0-2.96 1.673" stroke="#62BB46"/>
    <path d="M22 13.364A5.181 5.181 0 1 1 22 3a5.181 5.181 0 0 1 0 10.363z" stroke="#575251" stroke-linecap="square"/>
    <path d="M26.318 41h-8.636l-.864-10.364-3.454-.863v-8.637a3.455 3.455 0 0 1 3.454-3.454h10.364a3.455 3.455 0 0 1 3.454 3.454v8.637l-3.454.863L26.318 41z" stroke="#575251" stroke-linecap="square"/>
  </g>
</svg>
