<svg xmlns="http://www.w3.org/2000/svg" xmlns:xlink="http://www.w3.org/1999/xlink" viewBox="0 0 29 28" width="18" height="18">
  <defs>
    <path id="a" d="M14.441.034H0v27.91h28.882V.033h-14.44z"/>
  </defs>
  <g fill="none" fill-rule="evenodd">
    <path fill="#FFF" d="M8.055 5.75l-2.501 6.007.062 5.691-4.166 8.097 1.666 1.737 16.7-5.181 4.403-1.757 1.156-8.397-1.84-5.119-8.101-4.674z"/>
    <mask id="b" fill="#fff">
      <use xlink:href="#a"/>
    </mask>
    <path fill="#005EC3" d="M21.967.034H6.914C3.112.034 0 3.04 0 6.716v14.545c0 1.413.393 2.651 1.176 3.733.04.055.113.148.21.078l.597-.522 5.09-4.83.092-.09.078-.076c.154-.136.145-.26.058-.376-.03-.042-.062-.081-.092-.122-1.068-1.425-1.66-3.213-1.66-5.103 0-4.776 4.023-8.662 8.966-8.662s8.964 3.886 8.964 8.662c0 4.778-4.02 8.663-8.964 8.663-2.004 0-3.905-.593-5.4-1.67-.053-.04-.146-.111-.203-.148-.089-.056-.199-.082-.367.084l-.16.155-5.16 5.081-.27.299c-.11.129-.178.184-.05.287.035.028-.016-.011.02.016 1.142.803 2.478 1.223 3.99 1.223h15.053c3.804 0 6.915-3.007 6.915-6.682V6.716c0-3.675-3.111-6.682-6.915-6.682" mask="url(#b)"/>
    <path fill="#005EC3" d="M21.577 13.954c0-3.765-3.168-6.826-7.063-6.826-3.895 0-7.063 3.061-7.063 6.826 0 3.763 3.168 6.825 7.063 6.825 3.895 0 7.063-3.062 7.063-6.825zm-10.372-.026v-1.837h2.359V9.812h1.9v2.28h2.36v1.836h-2.36v4.167h-1.9v-4.167h-2.36z"/>
  </g>
</svg>