<svg width="16" height="25" viewBox="0 0 16 25" xmlns="http://www.w3.org/2000/svg">
  <path d="M8.397 24.983c-.354-.388-2.419-2.59-5.504-4.677-1.772-1.248-2.466-2.02-2.666-2.27a.05.05 0 0 1 .043-.082c.206.012.683.03 1.288-.01a.05.05 0 0 0 .04-.079C1.338 17.47.09 15.493 0 13.28a.05.05 0 0 1 .075-.046c.19.106.706.376 1.364.57a.05.05 0 0 0 .064-.059c-.098-.46-.536-2.77-.092-5.114a.051.051 0 0 1 .087-.025c.132.143.462.464 1.043.8a.05.05 0 0 0 .073-.026c.141-.404 1.041-2.856 2.56-4.326.03-.028.08-.01.086.03.664 4.334 4.43 5.321 6.21 9.138 1.195 2.561-.318 3.968-.816 4.342-.041.031-.016.096.035.092 2.843-.23 4.02-2.79 4.327-3.604.02-.052.097-.039.1.017.2 6.035-4.731 6.393-5.513 6.416a.38.38 0 0 1-.19-.044c-4.458-2.362-4.436-7.07-4.39-7.96.001-.028-.037-.037-.048-.011-2.24 5.383 1.618 8.426 2.992 9.757.55.533.795 1.006.514 1.74a.05.05 0 0 1-.084.016zM9.295.063c-.1.821-.328 4.286 2.464 7.297 3.138 3.36 2.797 5.923 1.679 8.304-.026.055-.108.036-.106-.024.02-.642-.154-1.97-2.34-4.371C7.533 7.469 5.108 4.672 9.2.019c.035-.04.103-.01.096.043z" fill="#62B946" fill-rule="evenodd"/>
</svg>
