<svg xmlns="http://www.w3.org/2000/svg" width="18" height="18" viewBox="0 0 18 18">
  <path fill="#888" d="M4,4 L4,3 C4,2.44771525 4.44771525,2 5,2 C5.55228475,2 6,2.44771525 6,3 L6,4 L8,4 L8,3 C8,2.44771525 8.44771525,2 9,2 C9.55228475,2 10,2.44771525 10,3 L10,4 L12,4 L12,3 C12,2.44771525 12.4477153,2 13,2 C13.5522847,2 14,2.44771525 14,3 L14,4 L15,4 C15.5522847,4 16,4.44771525 16,5 L16,15 C16,15.5522847 15.5522847,16 15,16 L3,16 C2.44771525,16 2,15.5522847 2,15 L2,5 C2,4.44771525 2.44771525,4 3,4 L4,4 Z M14,14 L14,8 L4,8 L4,14 L14,14 Z"/>
</svg>
