<svg xmlns="http://www.w3.org/2000/svg" width="18" height="18" viewBox="0 0 18 18">
  <path fill="#888" d="M4,10 L4,12.9906311 C4,13.5480902 4.4556644,14 4.99539757,14 L13.0046024,14 C13.5543453,14 14,13.5566468 14,12.9906311 L14,10 L16,10 L16,13 C16,14.6568542 14.6576211,16 12.9966488,16 L5.00335124,16 C3.34464615,16 2,14.6534829 2,13 L2,10 L4,10 Z M10,9.13051953 L11.9215728,7.68933984 L12.9215728,8.68933984 L8.92157285,12.6893398 L4.92157281,8.68933981 L5.92157295,7.68933987 L8,9.24816018 L8,2 L10,2 L10,9.13051953 Z"/>
</svg>
