<svg xmlns="http://www.w3.org/2000/svg" width="18" height="18" viewBox="0 0 18 18">
  <path fill="#888" d="M14.3,6.2 L15.4,4.1 L14,2.7 L11.9,3.8 C11.6,3.6 11.2,3.5 10.8,3.4 L10,1 L8,1 L7.2,3.3 C6.9,3.4 6.5,3.5 6.2,3.7 L4.1,2.6 L2.6,4.1 L3.7,6.2 C3.5,6.5 3.4,6.9 3.3,7.2 L1,8 L1,10 L3.3,10.8 C3.4,11.2 3.6,11.5 3.7,11.9 L2.6,14 L4,15.4 L6.1,14.3 C6.4,14.5 6.8,14.6 7.2,14.7 L8,17 L10,17 L10.8,14.7 C11.2,14.6 11.5,14.4 11.9,14.3 L14,15.4 L15.4,14 L14.3,11.9 C14.5,11.6 14.6,11.2 14.7,10.8 L17,10 L17,8 L14.7,7.2 C14.6,6.9 14.5,6.5 14.3,6.2 Z M9,12 C7.3,12 6,10.7 6,9 C6,7.3 7.3,6 9,6 C10.7,6 12,7.3 12,9 C12,10.7 10.7,12 9,12 Z"/>
</svg>
