<svg xmlns="http://www.w3.org/2000/svg" width="18" height="18" viewBox="0 0 18 18">
  <path fill="#888" d="M17,9 C17,13.4184 13.4184,17 9,17 C4.5816,17 1,13.4184 1,9 C1,4.5816 4.5816,1 9,1 C13.4184,1 17,4.5816 17,9 Z M15.4,9 C15.4,5.4653776 12.5346224,2.6 9,2.6 C5.4653776,2.6 2.6,5.4653776 2.6,9 C2.6,12.5346224 5.4653776,15.4 9,15.4 C12.5346224,15.4 15.4,12.5346224 15.4,9 Z M8.2,8.2 L9.8,8.2 L9.8,13 L8.2,13 L8.2,8.2 Z M9,5 C9.4418278,5 9.8,5.3581722 9.8,5.8 C9.8,6.2418278 9.4418278,6.6 9,6.6 C8.5581722,6.6 8.2,6.2418278 8.2,5.8 C8.2,5.3581722 8.5581722,5 9,5 Z"/>
</svg>
