<svg xmlns="http://www.w3.org/2000/svg" width="18" height="18" viewBox="0 0 18 18">
  <path fill="#888" d="M9,11 C7.8954305,11 7,10.1045695 7,9 C7,7.8954305 7.8954305,7 9,7 C10.1045695,7 11,7.8954305 11,9 C11,10.1045695 10.1045695,11 9,11 Z M3,11 C1.8954305,11 1,10.1045695 1,9 C1,7.8954305 1.8954305,7 3,7 C4.1045695,7 5,7.8954305 5,9 C5,10.1045695 4.1045695,11 3,11 Z M15,11 C13.8954305,11 13,10.1045695 13,9 C13,7.8954305 13.8954305,7 15,7 C16.1045695,7 17,7.8954305 17,9 C17,10.1045695 16.1045695,11 15,11 Z"/>
</svg>
