<svg xmlns="http://www.w3.org/2000/svg" xmlns:xlink="http://www.w3.org/1999/xlink" viewBox="0 -1.5 50 26" width="50" height="26">
	<g>
		<g>
			<path
				d="m3.2455,10.6l7.238,0l0,1.535l-5.523,0l0,2.541l4.894,0l0,1.536l-4.894,0l0,2.621l5.592,0l0,1.535l-7.307,0l0,-9.768z"
				fill="#62BB46"
			/>
			<path
				fill="#62BB46"
				d="m21.1435,20.654l-1.172,-1.045a5.143,5.143 0 0 1 -2.97,0.92a4.955,4.955 0 0 1 -5.088,-5.021l0,-0.028a5.104,5.104 0 1 1 10.208,-0.028l0,0.028a5.054,5.054 0 0 1 -0.989,2.998l1.109,0.948l-1.098,1.228zm-2.427,-2.162l-1.688,-1.435l1.109,-1.255l1.715,1.562c0.318,-0.566 0.48,-1.207 0.468,-1.856l0,-0.028c0,-1.895 -1.385,-3.472 -3.325,-3.472c-1.94,0 -3.284,1.56 -3.284,3.444l0,0.028c0,1.895 1.386,3.458 3.326,3.458c0.59,0.004 1.169,-0.15 1.679,-0.446z"
			/>
			<path
				fill="#62BB46"
				d="m24.0725,16.22l0,-5.62l1.716,0l0,5.542c0,1.813 0.933,2.771 2.469,2.771c1.535,0 2.455,-0.906 2.455,-2.704l0,-5.609l1.715,0l0,5.542c0,2.916 -1.646,4.379 -4.198,4.379c-2.552,0 -4.157,-1.472 -4.157,-4.301z"
			/>
			<path d="m34.9185,10.467l1.71,0l0,9.76l-1.715,0l0.005,-9.76z" fill="#62BB46" />
			<path
				fill="#62BB46"
				d="m39.1945,10.6l3.85,0c2.285,0 3.71,1.297 3.71,3.265l0,0.027c0,2.19 -1.757,3.326 -3.905,3.326l-1.94,0l0,3.142l-1.715,0l0,-9.76zm3.71,5.074c1.297,0 2.107,-0.726 2.107,-1.743l0,-0.028c0,-1.144 -0.832,-1.743 -2.106,-1.743l-1.996,0l0,3.514l1.996,0l-0.001,0z"
			/>
		</g>
	</g>
</svg>
