<svg xmlns="http://www.w3.org/2000/svg" width="12" height="12" viewBox="0 0 12 12">
  <path fill="#7A7A7A" fill-rule="evenodd" d="M7.36882129,4 C7.64258555,4 7.84790875,4.12727273 7.98479087,4.31818182 L7.98479087,4.31818182 L10.243346,8.13636364 C10.5855513,8.77272727 10.5855513,9.47272727 10.243346,10.0454545 C9.83269962,10.6181818 9.21673004,11 8.46387833,11 L8.46387833,11 L3.53612167,11 C2.78326996,11 2.16730038,10.6181818 1.75665399,10.0454545 C1.41444867,9.47272727 1.41444867,8.70909091 1.75665399,8.13636364 L1.75665399,8.13636364 L4.01520913,4.31818182 C4.15209125,4.12727273 4.35741445,4 4.63117871,4 L4.63117871,4 Z M7.89566617,1 C8.52291486,1 8.6483646,1.73333333 8.33474025,2.13333333 L8.33474025,2.13333333 L7.70749157,2.8 C7.58204183,2.93333333 7.45659209,3 7.26841748,3 L7.26841748,3 L4.75942274,3 C4.57124813,3 4.44579839,2.93333333 4.32034866,2.8 L4.32034866,2.8 L3.69309997,2.13333333 C3.31675076,1.73333333 3.50492536,1 4.13217405,1 L4.13217405,1 Z"/>
</svg>
