<svg xmlns="http://www.w3.org/2000/svg" width="12" height="12" viewBox="0 0 12 12">
  <path fill="#7A7A7A" fill-rule="evenodd" d="M6,10.75 C8.62335256,10.75 10.75,8.62335256 10.75,6 C10.75,3.37664744 8.62335256,1.25 6,1.25 C3.37664744,1.25 1.25,3.37664744 1.25,6 C1.25,8.62335256 3.37664744,10.75 6,10.75 Z M6,12 C2.6862915,12 0,9.3137085 0,6 C0,2.6862915 2.6862915,0 6,0 C9.3137085,0 12,2.6862915 12,6 C12,9.3137085 9.3137085,12 6,12 Z M8.6194971,4 L9.414214,4.7947169 L5.36418244,8.84474847 L3,6.48056603 L3.7947169,5.68584913 L5.36418244,7.25531466 L8.6194971,4 Z"/>
</svg>
