<svg xmlns="http://www.w3.org/2000/svg" width="12" height="12" viewBox="0 0 12 12">
  <path fill="#7A7A7A" fill-rule="evenodd" d="M4,7 C5.1904,7 6.0262,7.47205162 6.508,7.85476015 C6.823,8.10478749 7,8.48816275 7,8.89087346 L7,8.89087346 L7,11.0004375 L1,11.0004375 L1,8.89087346 C1,8.48816275 1.177,8.10478749 1.492,7.85476015 C1.9744,7.47205162 2.8102,7 4,7 Z M7.875,5.3754375 C9.115,5.3754375 9.985625,5.8179375 10.4875,6.1766875 C10.815625,6.4110625 11,6.7704375 11,7.1479375 L11,7.1479375 L11,9 L8.5,9 C8.5,8.2175 8.1125,7.4966875 7.46375,7.0341875 C7.2475,6.8791875 6.9825,6.7148125 6.66875,6.5641875 C6.9075,6.2298125 7.07375,5.8435625 7.166875,5.4298125 C7.38875,5.3973125 7.6225,5.3754375 7.875,5.3754375 Z M4.00009375,2.5 C5.1048122,2.5 6.0001875,3.39543126 6.0001875,4.50021875 C6.0001875,5.60500624 5.1048122,6.5004375 4.00009375,6.5004375 C2.8953753,6.5004375 2,5.60500624 2,4.50021875 C2,3.39543126 2.8953753,2.5 4.00009375,2.5 Z M7.8755,1 C8.911125,1 9.7505,1.84 9.7505,2.875 C9.7505,3.910625 8.911125,4.75 7.8755,4.75 C7.6505,4.75 7.438,4.704375 7.238,4.631875 C7.202375,3.705 6.76175,2.888125 6.088,2.33875 C6.319875,1.56625 7.027375,1 7.8755,1 Z"/>
</svg>
