<svg xmlns="http://www.w3.org/2000/svg" width="12" height="12" viewBox="0 0 12 12">
  <path fill="#888" d="M5.4,9.6 L6.6,9.6 L6.6,8.4 L5.4,8.4 L5.4,9.6 Z M6,0 C2.688,0 0,2.688 0,6 C0,9.312 2.688,12 6,12 C9.312,12 12,9.312 12,6 C12,2.688 9.312,0 6,0 Z M6,10.8 C3.354,10.8 1.2,8.646 1.2,6 C1.2,3.354 3.354,1.2 6,1.2 C8.646,1.2 10.8,3.354 10.8,6 C10.8,8.646 8.646,10.8 6,10.8 Z M6,2.4 C4.674,2.4 3.6,3.474 3.6,4.8 L4.8,4.8 C4.8,4.14 5.34,3.6 6,3.6 C6.66,3.6 7.2,4.14 7.2,4.8 C7.2,6 5.4,5.85 5.4,7.8 L6.6,7.8 C6.6,6.45 8.4,6.3 8.4,4.8 C8.4,3.474 7.326,2.4 6,2.4 Z"/>
</svg>
