<svg xmlns="http://www.w3.org/2000/svg" width="133" height="39"><g fill="none" fill-rule="evenodd"><g fill="#666"><path d="M126.96 32.315c-1.48 0-2.772-.213-3.842-.634-1.082-.422-1.99-1.033-2.7-1.813-.707-.777-1.23-1.707-1.556-2.767-.318-1.034-.48-2.183-.48-3.415 0-1.21.156-2.356.463-3.41.14-.48 1.128-3.75 4.448-4.93 6.11-2.172 8.758 3.202 8.758 7.08-.024.63-2.633 2.946-9.153 4.022.194.563.468 1.07.83 1.412.724.685 1.842 1.02 3.415 1.02 1.81 0 3.676-.76 3.697-.766.127-.047.268-.035.387.03.12.064.206.177.238.31l.58 2.41c.058.24-.073.49-.306.568-1.962.656-3.776.883-4.78.883zm-4.566-9.403c4.162-.58 5.705-1.67 5.705-1.67-.237-1.134-1.028-3.477-3.543-2.68-2.124.675-2.225 2.886-2.163 4.35zM33.643 32.008h-3.15c-.27 0-.488-.22-.488-.492V8.488c0-.27.218-.49.488-.49h12.15c.27 0 .487.22.487.49v2.717c0 .27-.218.49-.488.49h-8.51v5.158h6.118c.143 0 .28.064.372.174.093.11.133.256.11.4l-.45 2.715c-.04.237-.244.41-.482.41h-5.67v10.964c0 .272-.217.492-.487.492M59.262 13.125c-1.282 0-2.326-1.05-2.326-2.34 0-1.29 1.044-2.34 2.326-2.34s2.326 1.05 2.326 2.34c0 1.29-1.044 2.34-2.326 2.34M60.8 32.034h-3.075c-.27 0-.49-.22-.49-.49V15.68c0-.27.22-.49.49-.49H60.8c.27 0 .488.22.488.49v15.863c0 .27-.22.49-.49.49M102.836 13.125c-1.283 0-2.326-1.05-2.326-2.34 0-1.29 1.043-2.34 2.326-2.34 1.282 0 2.325 1.05 2.325 2.34 0 1.29-1.042 2.34-2.324 2.34M104.373 32.034H101.3c-.27 0-.49-.22-.49-.49V15.68c0-.27.22-.49.49-.49h3.073c.27 0 .49.22.49.49v15.863c0 .27-.22.49-.49.49M93.94 32.034h3.075c.27 0 .488-.22.488-.49V8.885c0-.143-.06-.278-.17-.372-.106-.093-.248-.136-.39-.114l-3.074.453c-.24.035-.418.242-.418.486v22.203c0 .27.22.49.488.49M113.97 32.034h-3.15c-.27 0-.49-.22-.49-.49V18.887h-2.247c-.27 0-.49-.22-.49-.49V15.68c0-.27.22-.49.49-.49h2.248v-.61c0-2.06.57-3.702 1.692-4.878 1.08-1.132 2.664-1.705 4.71-1.705.83 0 1.797.148 2.462.273.264.05.44.306.39.572l-.465 2.527c-.025.128-.098.24-.205.315-.107.074-.24.1-.367.078l-.574-.108c-.252-.046-.563-.07-.924-.07-.416 0-.79.042-1.11.126-.282.074-.514.207-.713.406-.168.17-.396.462-.53.898-.16.513-.24 1.07-.24 1.66v.515h3.372c.144 0 .282.064.374.175.093.113.13.26.105.405l-.5 2.716c-.044.233-.246.402-.48.402h-2.873v12.655c0 .27-.218.49-.488.49M88.596 16.06c-1.203-1.006-2.66-1.217-3.67-1.217-1.915 0-3.41.627-4.702 2.004V8.883c0-.143-.062-.28-.17-.372-.107-.092-.25-.136-.39-.114l-3.074.453c-.24.035-.418.24-.418.486v22.207c0 .27.22.49.488.49h3.075c.27 0 .49-.22.49-.49v-7.28c0-5.06 2.23-5.644 3.908-5.644.84 0 2.402 0 2.402 3.84l-.014 9.082c0 .13.052.256.144.348.09.093.215.144.345.144h3.074c.27 0 .488-.22.488-.49V21.25c0-2.347-.665-4.093-1.976-5.19M74.105 28.68c-.117-.093-.27-.127-.414-.093-.226.052-.44.096-.66.13-.286.05-.584.073-.914.073-.4 0-.734-.04-.988-.12-.182-.056-.317-.166-.436-.357-.12-.19-.208-.513-.278-1.015-.057-.406-.055-.67-.053-1.354l.002-7.056h2.99c.238 0 .44-.174.48-.41l.45-2.717c.024-.142-.016-.288-.11-.398-.09-.11-.227-.173-.37-.173h-3.44V10.6c0-.14-.062-.276-.168-.37-.107-.093-.25-.136-.39-.115l-3.15.453c-.24.034-.418.242-.418.486v4.135h-2.193c-.27 0-.488.22-.488.49v2.717c0 .27.22.49.488.49h2.193v8.165c0 1.84.48 3.192 1.426 4.015.93.808 2.216 1.218 3.824 1.218.53 0 1.042-.027 1.522-.08.274-.032.556-.078.887-.144.23-.044.394-.246.394-.48v-2.515c0-.15-.07-.29-.185-.384M52.4 16.392c-1.186-1.043-2.835-1.55-5.04-1.55-.812 0-1.666.065-2.538.193-.29.043-.8.133-1.324.237-.216.043-.384.217-.42.435l-.458 2.68c-.065.384.286.708.662.608.603-.16 1.39-.365 1.786-.43.617-.104 1.248-.166 1.937-.166 1.056 0 1.833.202 2.374.62.454.35.657 1.025.657 2.185v.032c-.106-.01-.223-.017-.35-.027l-.115-.008c-.462-.034-.937-.05-1.587-.05-.934 0-1.837.118-2.687.348-.864.234-1.642.597-2.31 1.08-.685.493-1.232 1.12-1.63 1.862-.4.75-.604 1.626-.604 2.603 0 .994.174 1.582.516 2.294.347.72.845 1.32 1.477 1.783.623.457 1.386.79 2.267.993.865.198 1.802.295 2.864.295 1.108 0 2.172-.09 3.252-.273.612-.104 1.105-.208 1.582-.307.34-.072.677-.142 1.05-.21.232-.045.402-.248.402-.485V21.33c0-2.277-.578-3.892-1.765-4.938zm-2.363 12.35c-.26.04-.637.08-.83.1-.535.053-.913.074-1.348.074-.363 0-.746-.02-1.14-.06-.35-.035-.67-.132-.954-.288-.273-.15-.503-.37-.685-.653-.178-.278-.27-.48-.27-.932 0-.827.26-1.415.798-1.797.597-.426 1.462-.633 2.645-.633.3 0 .638.02 1.13.062l.3.025c.105.01.235.02.354.03v4.072z"/></g><path fill="#5FBC39" d="M12.58 38.47c-.02.052-.088.065-.126.023-.525-.58-3.587-3.865-8.164-6.98C1.663 29.653.634 28.5.336 28.127c-.04-.05 0-.126.064-.123.305.017 1.014.043 1.91-.016.06-.004.09-.068.06-.117-.385-.59-2.237-3.54-2.37-6.84-.002-.06.06-.098.112-.07.28.16 1.046.562 2.022.852.055.016.107-.033.095-.088-.146-.687-.796-4.136-.138-7.632.012-.062.088-.084.13-.04.195.216.685.695 1.547 1.196.04.024.09.006.107-.04.21-.602 1.544-4.26 3.797-6.454.044-.043.118-.016.126.045.986 6.466 6.572 7.94 9.213 13.635 1.772 3.82-.472 5.92-1.21 6.48-.062.045-.025.143.052.136 4.215-.34 5.96-4.16 6.417-5.377.03-.078.144-.058.147.025.295 9.006-7.018 9.54-8.178 9.575-.097.002-.194-.02-.28-.066-6.612-3.525-6.58-10.55-6.512-11.88.002-.04-.055-.053-.07-.015-3.324 8.034 2.398 12.574 4.437 14.56.817.796 1.178 1.5.763 2.598"/><path fill="#5FBC39" d="M13.586.36c.053-.06.153-.017.143.064-.15 1.227-.488 6.397 3.653 10.89 4.655 5.015 4.15 8.84 2.49 12.392-.038.08-.16.053-.157-.037.03-.958-.23-2.94-3.47-6.523-5.13-5.67-8.727-9.844-2.66-16.788"/></g></svg>