<svg xmlns="http://www.w3.org/2000/svg" width="24" height="24">
	<path d="M12.613 2.706C12.58 2.606 11.993 1 10 1H7C5 1 4.416 2.617 4.385 2.71c-.03.092-.116.29-.287.29h-1.67C.81 3.023 0 3.866 0 5.6v5.8C0 12.57.81 14 2.43 14h12.14c1.62 0 2.43-.866 2.43-2.6V5.6c0-1.734-.81-2.6-2.43-2.6h-1.7c-.144 0-.227-.203-.257-.294" fill="#C7C7C7"/>
	<path d="M12 8.5C12 6.566 10.434 5 8.5 5S5 6.566 5 8.5 6.566 12 8.5 12 12 10.434 12 8.5" fill="#FFF"/>
	<path d="M10.75 8.5c0-1.243-1.007-2.25-2.25-2.25S6.25 7.257 6.25 8.5s1.007 2.25 2.25 2.25 2.25-1.007 2.25-2.25" fill="#C7C7C7"/>
	<path d="M15.75 6.5c0-.69-.56-1.25-1.25-1.25s-1.25.56-1.25 1.25.56 1.25 1.25 1.25 1.25-.56 1.25-1.25" fill="#FFF"/>
</svg>