<svg xmlns="http://www.w3.org/2000/svg" xmlns:xlink="http://www.w3.org/1999/xlink" viewBox="0 0 18 18" width="18" height="18">
	<g fill="none">
		<path
			fill-rule="evenodd"
			clip-rule="evenodd"
			d="M15.552 18H2.448A2.455 2.455 0 0 1 0 15.552V2.448A2.455 2.455 0 0 1 2.448 0h13.104A2.455 2.455 0 0 1 18 2.448v13.104A2.455 2.455 0 0 1 15.552 18z"
			fill="#F5F5F5"
		/>
		<mask
			id="a"
			maskUnits="userSpaceOnUse"
			x="0"
			y="0"
			width="18"
			height="18"
		>
			<path
				fill-rule="evenodd"
				clip-rule="evenodd"
				d="M15.552 18H2.448A2.455 2.455 0 0 1 0 15.552V2.448A2.455 2.455 0 0 1 2.448 0h13.104A2.455 2.455 0 0 1 18 2.448v13.104A2.455 2.455 0 0 1 15.552 18z"
				fill="#fff"
			/>
		</mask>
		<g mask="url(#a)">
			<path fill-rule="evenodd" clip-rule="evenodd" d="M0 0h18v5.85H0V0z" fill="#8CD86C" />
			<path fill-rule="evenodd" clip-rule="evenodd" d="M0 5.85h18v6.3H0v-6.3z" fill="#62B946" />
			<path fill-rule="evenodd" clip-rule="evenodd" d="M0 12.15h18V18H0v-5.85z" fill="#42991D" />
		</g>
		<g>
			<path
				fill-rule="evenodd"
				clip-rule="evenodd"
				d="M3.15 9c0-.267 0-.457.004-.607.002-.112.007-.202.015-.285a4 4 0 0 1 3.589-3.589c.195-.019.428-.019.892-.019h2.7c.464 0 .696 0 .892.02a4 4 0 0 1 3.605 3.928c.003.142.003.317.003.552 0 .464 0 .697-.02.892a4 4 0 0 1-3.588 3.589c-.196.019-.428.019-.892.019h-2.7c-.464 0-.697 0-.892-.02a4 4 0 0 1-3.589-3.588l-.007-.081a3.865 3.865 0 0 1-.005-.104C3.15 9.54 3.15 9.329 3.15 9zm5.4 0v2.25h.9V9h.9v-.9h-.9v-.9h-.9v.9h-.9V9h.9z"
				fill="#fff"
			/>
		</g>
		<g>
			<path
				fill-rule="evenodd"
				clip-rule="evenodd"
				d="M15.552 18H2.448A2.455 2.455 0 0 1 0 15.552V2.448A2.455 2.455 0 0 1 2.448 0h13.104A2.455 2.455 0 0 1 18 2.448v13.104A2.455 2.455 0 0 1 15.552 18z"
				fill="#F5F5F5"
			/>
			<mask
				id="b"
				maskUnits="userSpaceOnUse"
				x="0"
				y="0"
				width="18"
				height="18"
			>
				<path
					fill-rule="evenodd"
					clip-rule="evenodd"
					d="M15.552 18H2.448A2.455 2.455 0 0 1 0 15.552V2.448A2.455 2.455 0 0 1 2.448 0h13.104A2.455 2.455 0 0 1 18 2.448v13.104A2.455 2.455 0 0 1 15.552 18z"
					fill="#fff"
				/>
			</mask>
			<g mask="url(#b)">
				<path fill-rule="evenodd" clip-rule="evenodd" d="M0 0h18v5.85H0V0z" fill="#8CD86C" />
				<path fill-rule="evenodd" clip-rule="evenodd" d="M0 5.85h18v6.3H0v-6.3z" fill="#62B946" />
				<path
					fill-rule="evenodd"
					clip-rule="evenodd"
					d="M0 12.15h18V18H0v-5.85z"
					fill="#42991D"
				/>
			</g>
			<g>
				<path
					fill-rule="evenodd"
					clip-rule="evenodd"
					d="M3.15 7.7c0-1.12 0-1.68.218-2.108.192-.376.497-.682.874-.874.236-.12.511-.174.898-.198.316-.02.706-.02 1.21-.02h5.3c1.12 0 1.68 0 2.108.218a1.998 1.998 0 0 1 .874.874c.218.428.218.988.218 2.108v1.7c0 1.12 0 1.68-.218 2.108a1.998 1.998 0 0 1-.874.874c-.428.218-.988.218-2.108.218h-5.3c-1.12 0-1.68 0-2.108-.218a1.998 1.998 0 0 1-.874-.874C3.15 11.08 3.15 10.52 3.15 9.4V7.7zm5.4.85v2.25h.9V8.55h.9v-.9h-.9v-.9h-.9v.9h-.9v.9h.9z"
					fill="#fff"
				/>
			</g>
			<g>
				<path fill-rule="evenodd" clip-rule="evenodd" d="M6.3 13.5h5.4v.9H6.3v-.9z" fill="#fff" />
			</g>
		</g>
	</g>
</svg>
