<svg xmlns="http://www.w3.org/2000/svg" xmlns:xlink="http://www.w3.org/1999/xlink" viewBox="0 0 76 26" width="76" height="26">
	<g>
		<path
			fill="#62BB46"
			d="m68.656612,13.734747l-3.098,0l0,-1.582l7.912,0l0,1.582l-3.085,0l0,8.178l-1.729,0l0,-8.178z"
		/>
		<path
			d="m55.410612,17.060747l0,-0.028a4.94,4.94 0 0 1 5.036,-5.049a5.088,5.088 0 0 1 3.82,1.521l-1.108,1.27c-0.773,-0.726 -1.604,-1.214 -2.712,-1.214c-1.854,0 -3.22,1.535 -3.22,3.444l0,0.028c0,1.91 1.352,3.458 3.222,3.458c1.2,0 1.965,-0.473 2.802,-1.255l1.108,1.109c-1.017,1.058 -2.133,1.729 -3.96,1.729a4.91,4.91 0 0 1 -4.988,-5.013z"
			fill="#62BB46"
		/>
		<path
			fill="#62BB46"
			d="m46.745612,12.152747l7.238,0l0,1.535l-5.522,0l0,2.541l4.893,0l0,1.536l-4.893,0l0,2.621l5.592,0l0,1.535l-7.308,0l0,-9.768z"
		/>
		<path
			fill="#62BB46"
			d="m35.694612,12.152747l1.59,0l5.23,6.75l0,-6.75l1.687,0l0,9.76l-1.435,0l-5.384,-6.944l0,6.944l-1.688,0l0,-9.76z"
		/>
		<path
			fill="#62BB46"
			d="m24.643612,12.152747l1.59,0l5.23,6.75l0,-6.75l1.687,0l0,9.76l-1.435,0l-5.384,-6.944l0,6.944l-1.688,0l0,-9.76z"
		/>
		<path
			d="m12.384612,17.060747l0,-0.028a5.104,5.104 0 0 1 10.209,-0.028l0,0.028a5.104,5.104 0 0 1 -10.21,0.028l0.001,0zm8.409,0l0,-0.028c0,-1.895 -1.385,-3.472 -3.325,-3.472c-1.94,0 -3.287,1.56 -3.287,3.444l0,0.028c0,1.895 1.386,3.458 3.326,3.458c1.94,0 3.283,-1.535 3.283,-3.43l0.003,0z"
			fill="#62BB46"
		/>
		<path
			d="m2.530612,17.060747l0,-0.028a4.94,4.94 0 0 1 5.035,-5.049a5.088,5.088 0 0 1 3.821,1.521l-1.108,1.27c-0.782,-0.726 -1.618,-1.214 -2.732,-1.214c-1.854,0 -3.22,1.535 -3.22,3.444l0,0.028c0,1.91 1.352,3.458 3.222,3.458c1.2,0 1.968,-0.473 2.802,-1.255l1.108,1.109c-1.017,1.058 -2.133,1.729 -3.96,1.729a4.91,4.91 0 0 1 -4.968,-5.013z"
			fill="#62BB46"
		/>
	</g>
</svg>
