<svg xmlns="http://www.w3.org/2000/svg" xmlns:xlink="http://www.w3.org/1999/xlink" viewBox="1 0 18 18" width="18" height="18">
	<g fill="none">
		<path
			fill-rule="evenodd"
			clip-rule="evenodd"
			d="M16.54 18H3.364a2.461 2.461 0 0 1-2.46-2.448V2.448A2.461 2.461 0 0 1 3.365 0H16.54A2.461 2.461 0 0 1 19 2.448v13.104A2.461 2.461 0 0 1 16.54 18z"
			fill="#F5F5F5"
		/>
		<mask id="a" maskUnits="userSpaceOnUse" x="0" y="0" width="20" height="18">
			<path
				fill-rule="evenodd"
				clip-rule="evenodd"
				d="M15.635 18H2.46A2.461 2.461 0 0 1 0 15.552V2.448A2.461 2.461 0 0 1 2.46 0h13.175a2.461 2.461 0 0 1 2.46 2.448v13.104A2.461 2.461 0 0 1 15.635 18z"
				transform="translate(.905)"
				fill="#fff"
			/>
		</mask>
		<g mask="url(#a)">
			<path fill-rule="evenodd" clip-rule="evenodd" d="M.905 0H19v5.85H.905V0z" fill="#8CD86C" />
			<path
				fill-rule="evenodd"
				clip-rule="evenodd"
				d="M.905 5.85H19v6.3H.905v-6.3z"
				fill="#62B946"
			/>
			<path
				fill-rule="evenodd"
				clip-rule="evenodd"
				d="M.905 12.15H19V18H.905v-5.85z"
				fill="#42991D"
			/>
		</g>
		<g>
			<path
				fill-rule="evenodd"
				clip-rule="evenodd"
				d="M12.932 3.818c-.428-.218-.988-.218-2.108-.218H9.08c-1.12 0-1.68 0-2.108.218a2.006 2.006 0 0 0-.874.874C5.88 5.12 5.88 5.68 5.88 6.8v4.4c0 1.12 0 1.68.218 2.108.192.376.497.682.874.874.428.218.988.218 2.108.218h1.743c1.12 0 1.68 0 2.108-.218.376-.192.682-.498.874-.874.218-.428.218-.988.218-2.108V6.8c0-1.12 0-1.68-.218-2.108a1.999 1.999 0 0 0-.874-.874zm.187.682H6.785v7.2h6.334V4.5zm-4.072 8.1h1.81v.9h-1.81v-.9zm2.263-2.25H8.143v-.9h3.167v.9zm-3.167-1.8h3.619v-.9h-3.62v.9zm3.167-1.8H8.143v-.9h3.167v.9z"
				fill="#fff"
			/>
		</g>
	</g>
</svg>
