<svg xmlns="http://www.w3.org/2000/svg" xmlns:xlink="http://www.w3.org/1999/xlink" viewBox="0 0 82 26" width="82" height="26"
>
	<g>
		<path
			stroke="null"
			d="m78.35996,22.15272a6.332,6.332 0 0 1 -2.295,-0.377a4.132,4.132 0 0 1 -2.539,-2.718a6.861,6.861 0 0 1 -0.277,-2.029a7.205,7.205 0 0 1 0.277,-2.023c0.084,-0.277 0.674,-2.217 2.658,-2.926c3.647,-1.289 5.229,1.9 5.229,4.204c-0.014,0.374 -1.574,1.748 -5.465,2.386c0.098,0.312 0.268,0.596 0.496,0.83c0.433,0.408 1.109,0.605 2.04,0.605a6.83,6.83 0 0 0 2.217,-0.454a0.277,0.277 0 0 1 0.374,0.202l0.346,1.43a0.277,0.277 0 0 1 -0.183,0.335a9.823,9.823 0 0 1 -2.879,0.535l0.001,0zm-2.726,-5.59c2.494,-0.343 3.406,-0.991 3.406,-0.991c-0.141,-0.674 -0.613,-2.065 -2.114,-1.591c-1.27,0.41 -1.33,1.724 -1.292,2.583l0,-0.001z"
			fill="#666"
		/>
		<path
			stroke="null"
			d="m22.64096,21.96972l-1.879,0a0.291,0.291 0 0 1 -0.29,-0.291l0,-13.667c0,-0.16 0.13,-0.291 0.29,-0.291l7.252,0c0.16,0 0.291,0.13 0.291,0.291l0,1.624a0.291,0.291 0 0 1 -0.29,0.277l-5.083,0l0,3.048l3.655,0a0.291,0.291 0 0 1 0.277,0.341l-0.277,1.613a0.291,0.291 0 0 1 -0.277,0.244l-3.378,0l0,6.52c0,0.16 -0.13,0.29 -0.291,0.29l0,0.001z"
			fill="#666"
		/>
		<path
			stroke="null"
			d="m37.93696,10.76372a1.386,1.386 0 1 1 0,-2.771a1.386,1.386 0 0 1 0,2.77l0,0.001z"
			fill="#666"
		/>
		<path
			stroke="null"
			d="m38.85696,21.98672l-1.837,0a0.291,0.291 0 0 1 -0.29,-0.291l0,-9.422c0,-0.16 0.13,-0.291 0.29,-0.291l1.837,0a0.291,0.291 0 0 1 0.291,0.296l0,9.422a0.291,0.291 0 0 1 -0.29,0.286l-0.001,0z"
			fill="#666"
		/>
		<path
			stroke="null"
			d="m63.95496,10.76372a1.386,1.386 0 1 1 0,-2.771a1.386,1.386 0 0 1 0,2.77l0,0.001z"
			fill="#666"
		/>
		<path
			stroke="null"
			d="m64.87496,21.98672l-1.837,0a0.291,0.291 0 0 1 -0.291,-0.291l0,-9.422c0,-0.16 0.13,-0.291 0.29,-0.291l1.838,0c0.16,0 0.291,0.13 0.291,0.29l0,9.423c0,0.16 -0.13,0.29 -0.29,0.29l-0.001,0.001z"
			fill="#666"
		/>
		<path
			stroke="null"
			d="m58.64596,21.98672l1.84,0a0.291,0.291 0 0 0 0.277,-0.291l0,-13.446a0.291,0.291 0 0 0 -0.333,-0.277l-1.837,0.277a0.291,0.291 0 0 0 -0.25,0.277l0,13.169a0.291,0.291 0 0 0 0.303,0.29l0,0.001z"
			fill="#666"
		/>
		<path
			stroke="null"
			d="m70.60296,21.98672l-1.882,0a0.291,0.291 0 0 1 -0.29,-0.291l0,-7.51l-1.342,0a0.291,0.291 0 0 1 -0.29,-0.291l0,-1.616c0,-0.16 0.13,-0.29 0.29,-0.29l1.341,0l0,-0.36c0,-1.223 0.341,-2.198 1.009,-2.897c0.668,-0.698 1.59,-1.011 2.813,-1.011c0.493,0.012 0.984,0.067 1.468,0.164a0.291,0.291 0 0 1 0.233,0.34l-0.277,1.5a0.291,0.291 0 0 1 -0.34,0.232l-0.344,-0.063a3.148,3.148 0 0 0 -0.555,-0.042a2.682,2.682 0 0 0 -0.662,0.075a0.903,0.903 0 0 0 -0.427,0.24c-0.146,0.15 -0.255,0.333 -0.316,0.533c-0.097,0.319 -0.145,0.65 -0.144,0.984l0,0.304l2.012,0a0.291,0.291 0 0 1 0.277,0.344l-0.299,1.613a0.291,0.291 0 0 1 -0.277,0.238l-1.715,0l0,7.51a0.291,0.291 0 0 1 -0.283,0.294z"
			fill="#666"
		/>
		<path
			stroke="null"
			d="m55.45296,12.50672a3.414,3.414 0 0 0 -2.192,-0.724a3.625,3.625 0 0 0 -2.807,1.178l0,-4.71a0.291,0.291 0 0 0 -0.332,-0.278l-1.837,0.277a0.291,0.291 0 0 0 -0.25,0.277l0,13.169c0,0.16 0.13,0.29 0.291,0.29l1.837,0a0.291,0.291 0 0 0 0.291,-0.29l0,-4.323c0,-3.001 1.333,-3.348 2.334,-3.348c0.501,0 1.435,0 1.435,2.28l0,5.39c0,0.161 0.13,0.292 0.291,0.292l1.815,0c0.16,0 0.291,-0.13 0.291,-0.291l0,-6.097c0.014,-1.405 -0.382,-2.441 -1.167,-3.092z"
			fill="#666"
		/>
		<path
			stroke="null"
			d="m46.80196,19.99672a0.291,0.291 0 0 0 -0.247,-0.055c-0.135,0.03 -0.277,0.055 -0.393,0.077c-0.183,0.03 -0.369,0.044 -0.554,0.042c-0.2,0.005 -0.398,-0.02 -0.59,-0.072a0.457,0.457 0 0 1 -0.261,-0.214a1.618,1.618 0 0 1 -0.166,-0.601a5.068,5.068 0 0 1 -0.03,-0.804l0,-4.184l1.792,0a0.291,0.291 0 0 0 0.277,-0.244l0.277,-1.613a0.291,0.291 0 0 0 -0.277,-0.34l-2.053,0l0,-2.722a0.291,0.291 0 0 0 -0.333,-0.277l-1.881,0.277a0.291,0.291 0 0 0 -0.25,0.277l0,2.456l-1.308,0c-0.16,0 -0.29,0.13 -0.29,0.29l0,1.613c0,0.161 0.13,0.291 0.29,0.291l1.308,0l0,4.836c0,1.092 0.277,1.895 0.851,2.383s1.325,0.723 2.283,0.723c0.304,0.001 0.608,-0.014 0.91,-0.047c0.163,-0.02 0.332,-0.044 0.529,-0.086a0.291,0.291 0 0 0 0.235,-0.277l0,-1.502a0.291,0.291 0 0 0 -0.119,-0.227z"
			fill="#666"
		/>
		<path
			stroke="null"
			d="m33.84196,12.70272c-0.707,-0.618 -1.693,-0.92 -3.01,-0.92c-0.507,0.002 -1.014,0.04 -1.515,0.114c-0.172,0.025 -0.477,0.078 -0.79,0.141a0.319,0.319 0 0 0 -0.252,0.258l-0.278,1.59a0.319,0.319 0 0 0 0.394,0.36c0.36,-0.096 0.831,-0.215 1.067,-0.254a6.978,6.978 0 0 1 1.155,-0.097c0.501,-0.036 1,0.093 1.42,0.369c0.276,0.207 0.393,0.61 0.393,1.296l0,0.02l-0.21,-0.017l-0.07,0c-0.277,-0.02 -0.554,-0.028 -0.948,-0.028a6.177,6.177 0 0 0 -1.604,0.206a4.254,4.254 0 0 0 -1.386,0.64a3.14,3.14 0 0 0 -1.333,2.649a2.968,2.968 0 0 0 1.189,2.416a3.66,3.66 0 0 0 1.352,0.59c0.562,0.123 1.135,0.181 1.71,0.175c0.65,0 1.299,-0.054 1.94,-0.163c0.366,-0.061 0.66,-0.122 0.945,-0.183c0.202,-0.042 0.404,-0.083 0.626,-0.125a0.294,0.294 0 0 0 0.241,-0.277l0,-5.82c0.017,-1.36 -0.327,-2.319 -1.036,-2.94zm-1.41,7.33c-0.156,0.025 -0.38,0.047 -0.497,0.058a6.79,6.79 0 0 1 -1.483,0.008a1.488,1.488 0 0 1 -0.57,-0.171a1.13,1.13 0 0 1 -0.41,-0.388a0.859,0.859 0 0 1 -0.161,-0.555a1.205,1.205 0 0 1 0.477,-1.066a2.71,2.71 0 0 1 1.58,-0.374c0.18,0 0.379,0 0.675,0.036l0.178,0.013l0.213,0.02l-0.003,2.419l0.001,0z"
			fill="#666"
		/>
		<path
			stroke="null"
			d="m10.08196,24.37972a0.044,0.044 0 0 1 -0.074,0a29.03,29.03 0 0 0 -4.878,-4.128c-1.568,-1.109 -2.183,-1.787 -2.36,-2.01a0.044,0.044 0 0 1 0.038,-0.071c0.38,0.022 0.762,0.022 1.142,0a0.044,0.044 0 0 0 0.036,-0.07c-0.23,-0.363 -1.336,-2.111 -1.416,-4.07a0.044,0.044 0 0 1 0.067,-0.042c0.383,0.21 0.788,0.38 1.208,0.505a0.044,0.044 0 0 0 0.055,-0.053a12.528,12.528 0 0 1 -0.08,-4.528a0.044,0.044 0 0 1 0.077,-0.022c0.271,0.28 0.582,0.52 0.923,0.71a0.044,0.044 0 0 0 0.064,-0.023c0.125,-0.357 0.923,-2.53 2.267,-3.83a0.044,0.044 0 0 1 0.074,0.028c0.588,3.838 3.924,4.71 5.501,8.092c1.059,2.266 -0.277,3.513 -0.723,3.846a0.044,0.044 0 0 0 0.03,0.08c2.522,-0.205 3.561,-2.474 3.838,-3.195a0.045,0.045 0 0 1 0.089,0.014c0.174,5.345 -4.193,5.661 -4.886,5.684a0.338,0.338 0 0 1 -0.166,-0.04c-3.949,-2.091 -3.93,-6.262 -3.88,-7.049a0.022,0.022 0 0 0 -0.04,0c-1.985,4.766 1.432,7.463 2.648,8.64c0.477,0.463 0.693,0.882 0.446,1.533l0,-0.001z"
			fill="#62BB46"
		/>
		<path
			stroke="null"
			d="m10.71996,1.61572a0.05,0.05 0 0 1 0.086,0.04a8.252,8.252 0 0 0 2.18,6.461c2.772,2.976 2.478,5.246 1.489,7.355a0.05,0.05 0 0 1 -0.095,-0.022c0.02,-0.555 -0.135,-1.746 -2.072,-3.88c-3.062,-3.356 -5.21,-5.833 -1.588,-9.954z"
			fill="#62bb46"
		/>
	</g>
</svg>
