<svg xmlns="http://www.w3.org/2000/svg" xmlns:xlink="http://www.w3.org/1999/xlink" viewBox="0 0 18 18" width="18" height="18">
	<g fill="none">
		<path
			fill-rule="evenodd"
			clip-rule="evenodd"
			d="M15.552 18H2.448A2.455 2.455 0 0 1 0 15.552V2.448A2.455 2.455 0 0 1 2.448 0h13.104A2.455 2.455 0 0 1 18 2.448v13.104A2.455 2.455 0 0 1 15.552 18z"
			fill="#F5F5F5"
		/>
		<mask id="a" maskUnits="userSpaceOnUse" x="0" y="0" width="18" height="18">
			<path
				fill-rule="evenodd"
				clip-rule="evenodd"
				d="M15.552 18H2.448A2.455 2.455 0 0 1 0 15.552V2.448A2.455 2.455 0 0 1 2.448 0h13.104A2.455 2.455 0 0 1 18 2.448v13.104A2.455 2.455 0 0 1 15.552 18z"
				fill="#fff"
			/>
		</mask>
		<g mask="url(#a)">
			<path fill-rule="evenodd" clip-rule="evenodd" d="M0 0h18v5.85H0V0z" fill="#8CD86C" />
			<path fill-rule="evenodd" clip-rule="evenodd" d="M0 5.85h18v6.3H0v-6.3z" fill="#62B946" />
			<path fill-rule="evenodd" clip-rule="evenodd" d="M0 12.15h18V18H0v-5.85z" fill="#42991D" />
		</g>
		<g>
			<path
				fill-rule="evenodd"
				clip-rule="evenodd"
				d="M14.4 9A5.4 5.4 0 1 1 3.6 9a5.4 5.4 0 0 1 10.8 0zm-5.195 1.663l1.247-.831a1 1 0 0 0 0-1.664l-1.247-.832a1 1 0 0 0-1.555.832v1.663a1 1 0 0 0 1.555.832z"
				fill="#fff"
			/>
		</g>
	</g>
</svg>
