<svg xmlns="http://www.w3.org/2000/svg" xmlns:xlink="http://www.w3.org/1999/xlink" viewBox="0 0 18 18" width="18" height="18">
	<g fill="none">
		<path
			fill-rule="evenodd"
			clip-rule="evenodd"
			d="M5.206 3.696L3.589 7.558l.04 3.659-2.692 5.205 1.077 1.116 10.792-3.33 2.846-1.13.747-5.398-1.189-3.29-5.236-3.005-4.768 2.311z"
			fill="#fff"
		/>
		<mask id="a" maskUnits="userSpaceOnUse" x="0" y="0" width="19" height="18">
			<path
				fill-rule="evenodd"
				clip-rule="evenodd"
				d="M9.333 0H0v17.942h18.665V0H9.333z"
				transform="translate(0 .022)"
				fill="#fff"
			/>
		</mask>
		<g mask="url(#a)">
			<path
				fill-rule="evenodd"
				clip-rule="evenodd"
				d="M14.196.022H4.468C2.011.022 0 1.955 0 4.317v9.35c0 .909.253 1.705.759 2.4.025.036.073.095.136.05l.386-.335 3.289-3.105.06-.058.05-.049c.1-.087.094-.167.038-.241l-.06-.079a5.443 5.443 0 0 1-1.072-3.28c0-3.07 2.6-5.569 5.794-5.569 3.194 0 5.793 2.499 5.793 5.569 0 3.071-2.599 5.569-5.793 5.569-1.295 0-2.524-.381-3.49-1.074-.034-.025-.095-.071-.131-.095-.058-.036-.129-.053-.237.054l-.103.1-3.336 3.266-.174.192c-.071.083-.115.118-.033.185.023.018-.01-.007.014.01.737.516 1.6.786 2.578.786h9.728c2.458 0 4.47-1.933 4.47-4.295v-9.35c0-2.363-2.012-4.296-4.47-4.296z"
				fill="#005EC3"
			/>
		</g>
		<g>
			<path
				fill-rule="evenodd"
				clip-rule="evenodd"
				d="M13.945 8.97c0-2.42-2.048-4.387-4.565-4.387-2.518 0-4.565 1.967-4.565 4.387 0 2.42 2.047 4.388 4.565 4.388 2.517 0 4.565-1.969 4.565-4.388zM7.24 8.954V7.773h1.525V6.308h1.228v1.465h1.524v1.181H9.994v2.679H8.766V8.954H7.24z"
				fill="#005EC3"
			/>
		</g>
	</g>
</svg>
