<svg xmlns="http://www.w3.org/2000/svg" xmlns:xlink="http://www.w3.org/1999/xlink" viewBox="0 0 18 18" width="18" height="18">
	<g fill="none">
		<path
			fill-rule="evenodd"
			clip-rule="evenodd"
			d="M15.635 18H2.46A2.461 2.461 0 0 1 0 15.552V2.448A2.461 2.461 0 0 1 2.46 0h13.175a2.461 2.461 0 0 1 2.46 2.448v13.104A2.461 2.461 0 0 1 15.635 18z"
			fill="#F5F5F5"
		/>
		<mask id="a" maskUnits="userSpaceOnUse" x="0" y="0" width="19" height="18">
			<path
				fill-rule="evenodd"
				clip-rule="evenodd"
				d="M15.635 18H2.46A2.461 2.461 0 0 1 0 15.552V2.448A2.461 2.461 0 0 1 2.46 0h13.175a2.461 2.461 0 0 1 2.46 2.448v13.104A2.461 2.461 0 0 1 15.635 18z"
				fill="#fff"
			/>
		</mask>
		<g mask="url(#a)">
			<path fill-rule="evenodd" clip-rule="evenodd" d="M0 0h18.095v5.85H0V0z" fill="#8CD86C" />
			<path
				fill-rule="evenodd"
				clip-rule="evenodd"
				d="M0 5.85h18.095v6.3H0v-6.3z"
				fill="#62B946"
			/>
			<path
				fill-rule="evenodd"
				clip-rule="evenodd"
				d="M0 12.15h18.095V18H0v-5.85z"
				fill="#42991D"
			/>
		</g>
		<path
			fill-rule="evenodd"
			clip-rule="evenodd"
			d="M3.167 5.85v.9c.75 0 1.357.608 1.357 1.357v3.588c0 .5-.405.905-.905.905v.9h10.857v-.9a.905.905 0 0 1-.904-.905V8.107c0-.75.607-1.357 1.357-1.357v-.9L9.048 3.6 3.167 5.85z"
			fill="#fff"
		/>
		<g>
			<path
				fill-rule="evenodd"
				clip-rule="evenodd"
				d="M6.333 7.655a.905.905 0 0 1 1.81 0v4.495h-1.81V7.655z"
				fill="#62B946"
			/>
		</g>
		<g>
			<path
				fill-rule="evenodd"
				clip-rule="evenodd"
				d="M9.952 7.655a.905.905 0 1 1 1.81 0v4.495h-1.81V7.655z"
				fill="#62B946"
			/>
		</g>
	</g>
</svg>
