<svg xmlns="http://www.w3.org/2000/svg" xmlns:xlink="http://www.w3.org/1999/xlink" viewBox="0 0 18 18" width="18" height="18">
	<g fill="none">
		<path
			fill-rule="evenodd"
			clip-rule="evenodd"
			d="M15.552 18H2.448A2.455 2.455 0 0 1 0 15.552V2.448A2.455 2.455 0 0 1 2.448 0h13.104A2.455 2.455 0 0 1 18 2.448v13.104A2.455 2.455 0 0 1 15.552 18z"
			fill="#F5F5F5"
		/>
		<mask id="a" maskUnits="userSpaceOnUse" x="0" y="0" width="18" height="18">
			<path
				fill-rule="evenodd"
				clip-rule="evenodd"
				d="M15.552 18H2.448A2.455 2.455 0 0 1 0 15.552V2.448A2.455 2.455 0 0 1 2.448 0h13.104A2.455 2.455 0 0 1 18 2.448v13.104A2.455 2.455 0 0 1 15.552 18z"
				fill="#fff"
			/>
		</mask>
		<g mask="url(#a)">
			<path fill-rule="evenodd" clip-rule="evenodd" d="M0 0h18v5.85H0V0z" fill="#8CD86C" />
			<path fill-rule="evenodd" clip-rule="evenodd" d="M0 5.85h18v6.3H0v-6.3z" fill="#62B946" />
			<path fill-rule="evenodd" clip-rule="evenodd" d="M0 12.15h18V18H0v-5.85z" fill="#42991D" />
		</g>
		<path
			fill-rule="evenodd"
			clip-rule="evenodd"
			d="M12.455 7.24a1.5 1.5 0 0 1 1.495-1.39v-1.8h-9.9v1.8a1.5 1.5 0 0 1 1.496 1.39l.529 7.16h5.85l.53-7.16zM9.45 6.75v.9h.9v.9h-.9v2.25h-.9V8.55h-.9v-.9h.9v-.9h.9z"
			fill="#fff"
		/>
	</g>
</svg>
