<svg xmlns="http://www.w3.org/2000/svg" width="18" height="16" viewBox="0 0 18 18" className="custom-icon">
	<path fill="#444" fill-rule="evenodd" d="M15,13 L15,3 L3,3 L3,14.5625 L10,8 L15,13 Z M2,1 L16,1 C16.5522847,1 17,1.44771525 17,2 L17,16 C17,16.5522847 16.5522847,17 16,17 L2,17 C1.44771525,17 1,16.5522847 1,16 L1,2 C1,1.44771525 1.44771525,1 2,1 Z M6.5,8 C5.67157288,8 5,7.32842712 5,6.5 C5,5.67157288 5.67157288,5 6.5,5 C7.32842712,5 8,5.67157288 8,6.5 C8,7.32842712 7.32842712,8 6.5,8 Z"/>
</svg>
