<svg xmlns="http://www.w3.org/2000/svg" width="18" height="18" viewBox="0 0 18 18">
  <path fill="#888" d="M12.9379707,11.0620293 L13,11 L17,15.5 L15.5,17 L11,13 L11.0620293,12.9379707 C10.0390157,13.6094361 8.81511839,14 7.5,14 C3.91014913,14 1,11.0898509 1,7.5 C1,3.91014913 3.91014913,1 7.5,1 C11.0898509,1 14,3.91014913 14,7.5 C14,8.81511839 13.6094361,10.0390157 12.9379705,11.0620296 L12.9379707,11.0620293 Z M7.5,11.5 C9.709139,11.5 11.5,9.709139 11.5,7.5 C11.5,5.290861 9.709139,3.5 7.5,3.5 C5.290861,3.5 3.5,5.290861 3.5,7.5 C3.5,9.709139 5.290861,11.5 7.5,11.5 Z"/>
</svg>
