<svg xmlns="http://www.w3.org/2000/svg" width="18" height="18" viewBox="0 0 18 18">
	<path fill="#888" d="M5.22590395,4 L6.35542368,2 L11.7064293,2 L12.7844049,4 L15,4 C16.1045695,4 17,4.8954305 17,6 L17,14 C17,15.1045695 16.1045695,16 15,16 L3,16 C1.8954305,16 1,15.1045695 1,14 L1,6 C1,4.8954305 1.8954305,4 3,4 L5.22590395,4 Z M9,14 C11.209139,14 13,12.209139 13,10 C13,7.790861 11.209139,6 9,6 C6.790861,6 5,7.790861 5,10 C5,12.209139 6.790861,14 9,14 Z M9,12.8 C7.4536027,12.8 6.2,11.5463973 6.2,10 C6.2,8.4536027 7.4536027,7.2 9,7.2 C10.5463973,7.2 11.8,8.4536027 11.8,10 C11.8,11.5463973 10.5463973,12.8 9,12.8 Z"/>
</svg>