<svg xmlns="http://www.w3.org/2000/svg" width="18" height="18" viewBox="0 0 18 18">
  <path fill="#7A7A7A" fill-rule="evenodd" d="M6.5,12 C7.32842712,12 8,12.6715729 8,13.5 C8,14.3284271 7.32842712,15 6.5,15 C5.67157288,15 5,14.3284271 5,13.5 C5,12.6715729 5.67157288,12 6.5,12 Z M11.5,12 C12.3284271,12 13,12.6715729 13,13.5 C13,14.3284271 12.3284271,15 11.5,15 C10.6715729,15 10,14.3284271 10,13.5 C10,12.6715729 10.6715729,12 11.5,12 Z M6.5,7 C7.32842712,7 8,7.67157288 8,8.5 C8,9.32842712 7.32842712,10 6.5,10 C5.67157288,10 5,9.32842712 5,8.5 C5,7.67157288 5.67157288,7 6.5,7 Z M11.5,7 C12.3284271,7 13,7.67157288 13,8.5 C13,9.32842712 12.3284271,10 11.5,10 C10.6715729,10 10,9.32842712 10,8.5 C10,7.67157288 10.6715729,7 11.5,7 Z M6.5,2 C7.32842712,2 8,2.67157288 8,3.5 C8,4.32842712 7.32842712,5 6.5,5 C5.67157288,5 5,4.32842712 5,3.5 C5,2.67157288 5.67157288,2 6.5,2 Z M11.5,2 C12.3284271,2 13,2.67157288 13,3.5 C13,4.32842712 12.3284271,5 11.5,5 C10.6715729,5 10,4.32842712 10,3.5 C10,2.67157288 10.6715729,2 11.5,2 Z"/>
</svg>
