<svg xmlns="http://www.w3.org/2000/svg" width="18" height="18" viewBox="0 0 18 18">
  <path fill="#888" d="M9,5 C7.8954305,5 7,4.1045695 7,3 C7,1.8954305 7.8954305,1 9,1 C10.1045695,1 11,1.8954305 11,3 C11,4.1045695 10.1045695,5 9,5 Z M9,11 C7.8954305,11 7,10.1045695 7,9 C7,7.8954305 7.8954305,7 9,7 C10.1045695,7 11,7.8954305 11,9 C11,10.1045695 10.1045695,11 9,11 Z M9,17 C7.8954305,17 7,16.1045695 7,15 C7,13.8954305 7.8954305,13 9,13 C10.1045695,13 11,13.8954305 11,15 C11,16.1045695 10.1045695,17 9,17 Z"/>
</svg>
